# xmcd
#
# Track frame offsets: 
#        150
#        13807
#        25988
#        39395
#        52236
#        61551
#        75291
#        91191
#        101035
#        113054
#        127079
#        138272
#        151141
#        164965
#        179891
#        194260
#        210764
#        224827
#        239267
#        265373
#        286391
#        300571
#
# Disc length: 4168 seconds
#
# Revision: 0
# Processed by: cddbd v1.5.2PL0 Copyright (c) Steve Scherf et al.
# Submitted via: ExactAudioCopy v0.95a5
#
DISCID=3d104616
DTITLE=Various Artist - Bottleneck Blues: Music Rough Guide (Slide Guitar: Or
DTITLE=iginal Legends and Modern Masters)
DYEAR=2005
DGENRE=Blues
TTITLE0=Sylvester Weaver - Guitar Rag
TTITLE1=Fred McDowell - Fred's Worried Life Blues
TTITLE2=Blind Willie Johnson - God Moves on the Water
TTITLE3=Furry Lewis - Falling Down Blues
TTITLE4=Pete Harris - Jack O'Diamonds
TTITLE5=Allen Shaw - Moanin' the Blues
TTITLE6=Stefan Grossman - Memphis Jellyroll
TTITLE7=Son House - Country Farm Blues
TTITLE8=Robert Johnson - Come On In My Kitchen
TTITLE9=Muddy Waters - I Be's Troubled
TTITLE10=Bukka White - Sic 'Em Dogs On
TTITLE11=Jim and Bob (The Genial Hawaiians) - St. Louis Blues
TTITLE12=Blind Willie McTell - Mama, 'Taint Long Fo' Day
TTITLE13=John Fahey - Dance of hte Inhabitants of the Palace of King P
TTITLE13=hilip XIV of Spain
TTITLE14=Charley Patton - A Spoonful Blues
TTITLE15=Willie Harris - Never Drive A Stranger From Your Door
TTITLE16=Hambone Willie Newbern - Roll and Tumble Blues
TTITLE17=Kokomo Arnold - The Twelves (Dirty Dozens)
TTITLE18=Martin Simpson - I Can't Keep From Crying Sometimes
TTITLE19=Bob Brozman - Poor Me
TTITLE20=Casey Bill Weldon - You Just As Well Let Her Go
TTITLE21=Dan Pickett - Baby How Long
EXTD=
EXTT0=
EXTT1=
EXTT2=
EXTT3=
EXTT4=
EXTT5=
EXTT6=
EXTT7=
EXTT8=
EXTT9=
EXTT10=
EXTT11=
EXTT12=
EXTT13=
EXTT14=
EXTT15=
EXTT16=
EXTT17=
EXTT18=
EXTT19=
EXTT20=
EXTT21=
PLAYORDER=
